<svg xmlns="http://www.w3.org/2000/svg" version="1.1" xmlns:xlink="http://www.w3.org/1999/xlink" xmlns:svgjs="http://svgjs.dev/svgjs" width="2000" height="2250" viewBox="0 0 2000 2250"><g transform="matrix(1,0,0,1,0.00022954974599542766,0)"><svg viewBox="0 0 320 360" data-background-color="#000000" preserveAspectRatio="xMidYMid meet" height="2250" width="2000" xmlns="http://www.w3.org/2000/svg" xmlns:xlink="http://www.w3.org/1999/xlink"><g id="tight-bounds" transform="matrix(1,0,0,1,-0.00003672795935472095,0)"><svg viewBox="0 0 320 360" height="360" width="320"><rect width="320.0000734559187" height="360" fill="url(#eeee4e4c-8034-4c78-823e-6acab613e397)" mask="url(#97752b96-befc-446e-996e-8010148c9bfa)" data-fill-palette-color="tertiary"></rect><g><svg></svg></g><g><svg viewBox="0 0 320 360" height="360" width="320"><g><path transform="translate(-32.1528,-12.1528) scale(3.84303,3.84303)" d="M88.492 50l1.711-2.963c2.946-5.102 1.198-11.626-3.904-14.572l-2.963-1.711v-3.422c0-5.891-4.776-10.667-10.667-10.667h-3.422l-1.711-2.963c-2.946-5.102-9.47-6.85-14.572-3.904l-2.964 1.71-2.963-1.711c-5.102-2.945-11.626-1.197-14.572 3.905l-1.711 2.963h-3.422c-5.891 0-10.667 4.776-10.667 10.667v3.422l-2.963 1.711c-5.102 2.946-6.85 9.47-3.904 14.572l1.71 2.963-1.711 2.963c-2.945 5.102-1.197 11.626 3.905 14.572l2.963 1.711v3.422c0 5.891 4.776 10.667 10.667 10.667h3.422l1.711 2.963c2.946 5.102 9.47 6.85 14.572 3.904l2.963-1.71 2.963 1.711c5.102 2.946 11.626 1.198 14.572-3.904l1.711-2.963h3.422c5.891 0 10.667-4.776 10.667-10.667v-3.422l2.963-1.711c5.102-2.946 6.85-9.47 3.904-14.572zM85.832 33.273c2.252 1.3 3.862 3.399 4.535 5.91 0.673 2.511 0.328 5.135-0.972 7.386l-1.441 2.497-4.618-7.999v-9.236zM73.72 73.72l-15.038 8.682h-17.364l-15.038-8.682-8.682-15.038v-17.364l8.682-15.038 15.038-8.682h17.364l15.038 8.682 8.682 15.038v17.364zM82.401 60.549v8.158l-7.065 4.079zM72.786 75.336l-4.079 7.065h-8.158zM57.065 83.335l-7.065 4.079-7.065-4.079zM39.451 82.401h-8.158l-4.079-7.065zM24.664 72.786l-7.065-4.079v-8.158zM16.665 57.065l-4.079-7.065 4.079-7.065zM17.599 39.451v-8.158l7.065-4.079zM27.214 24.664l4.079-7.065h8.158zM42.935 16.665l7.065-4.079 7.065 4.079zM60.549 17.599h8.158l4.079 7.065zM75.336 27.214l7.065 4.079v8.158zM83.335 42.935l4.079 7.065-4.079 7.065zM72.668 17.599c2.6 0 5.044 1.012 6.883 2.851 1.838 1.838 2.851 4.283 2.851 6.883v2.883l-7.999-4.618-4.618-7.999zM53.43 10.606c2.252-1.3 4.875-1.645 7.386-0.972 2.511 0.673 4.61 2.284 5.91 4.535l1.441 2.497h-9.236l-7.999-4.618zM33.273 14.168c1.3-2.252 3.399-3.862 5.91-4.535 2.511-0.673 5.135-0.328 7.386 0.972l2.497 1.441-7.999 4.618h-9.236zM17.599 27.332c0-2.6 1.012-5.044 2.851-6.883 1.838-1.838 4.283-2.851 6.883-2.851h2.883l-4.618 7.999-7.999 4.618zM10.606 46.57c-1.3-2.252-1.645-4.875-0.972-7.386 0.673-2.511 2.284-4.61 4.535-5.91l2.497-1.441v9.236l-4.618 7.999zM14.168 66.727c-2.252-1.3-3.862-3.399-4.535-5.91-0.673-2.511-0.328-5.135 0.972-7.386l1.441-2.497 4.618 7.999v9.236zM27.332 82.401c-2.6 0-5.044-1.012-6.883-2.851-1.838-1.838-2.851-4.283-2.851-6.883v-2.883l7.999 4.618 4.618 7.999zM46.57 89.394c-2.252 1.3-4.875 1.645-7.386 0.972-2.511-0.673-4.61-2.284-5.91-4.535l-1.441-2.497h9.236l7.999 4.618zM66.727 85.832c-1.3 2.252-3.399 3.862-5.91 4.535-2.511 0.673-5.135 0.328-7.386-0.972l-2.497-1.441 7.999-4.618h9.236zM82.401 72.668c0 2.6-1.012 5.044-2.851 6.883-1.838 1.838-4.283 2.851-6.883 2.851h-2.883l4.618-7.999 7.999-4.618zM90.367 60.816c-0.673 2.511-2.284 4.61-4.535 5.91l-2.497 1.441v-9.236l4.618-7.999 1.441 2.497c1.3 2.253 1.646 4.876 0.973 7.387z" fill="url(#eeee4e4c-8034-4c78-823e-6acab613e397)" fill-rule="nonzero" stroke="none" stroke-width="1" stroke-linecap="butt" stroke-linejoin="miter" stroke-miterlimit="10" stroke-dasharray="" stroke-dashoffset="0" font-family="none" font-weight="none" font-size="none" text-anchor="none" style="mix-blend-mode: normal" data-fill-palette-color="tertiary"></path></g><g transform="matrix(1,0,0,1,87.19553551741222,90)"><svg viewBox="0 0 145.60892896517555 180" height="180" width="145.60892896517555"><g><svg viewBox="0 0 145.60892896517555 180" height="180" width="145.60892896517555"><g><svg viewBox="0 0 192 237.34808191787135" height="180" width="145.60892896517555"><g transform="matrix(1,0,0,1,0,137.86621663289725)"><svg viewBox="0 0 192 99.4818652849741" height="99.4818652849741" width="192"><g id="textblocktransform"><svg viewBox="0 0 192 99.4818652849741" height="99.4818652849741" width="192" id="textblock"><g><svg viewBox="0 0 192 99.4818652849741" height="99.4818652849741" width="192"><g transform="matrix(1,0,0,1,0,0)"><svg width="192" viewBox="4.6 -35 67.55000000000001 35" height="99.4818652849741" data-palette-color="url(#c5449fcb-31e4-4b59-b615-ae6d5798677d)"><g class="wordmark-text-0" data-fill-palette-color="primary" id="text-0"></g></svg></g></svg></g></svg></g></svg></g><g transform="matrix(1,0,0,1,36.672,0)"><svg viewBox="0 0 118.656 123.34942492305268" height="123.34942492305268" width="118.656"><g><svg xmlns="http://www.w3.org/2000/svg" xmlns:xlink="http://www.w3.org/1999/xlink" version="1.1" x="0" y="0" viewBox="18.323 17.068999999999996 63.355 65.86100000000002" enable-background="new 0 0 100 100" xml:space="preserve" height="123.34942492305268" width="118.656" class="icon-icon-0" data-fill-palette-color="accent" id="icon-0"></svg></g></svg></g><g></g></svg></g></svg></g></svg></g></svg></g><defs></defs><mask id="02eaf361-482c-4b8f-9f31-eda46d841415"><g id="SvgjsG3717"><svg viewBox="0 0 320 360" height="360" width="320"><g><svg></svg></g><g><svg viewBox="0 0 320 360" height="360" width="320"><g><path transform="translate(-32.1528,-12.1528) scale(3.84303,3.84303)" d="M88.492 50l1.711-2.963c2.946-5.102 1.198-11.626-3.904-14.572l-2.963-1.711v-3.422c0-5.891-4.776-10.667-10.667-10.667h-3.422l-1.711-2.963c-2.946-5.102-9.47-6.85-14.572-3.904l-2.964 1.71-2.963-1.711c-5.102-2.945-11.626-1.197-14.572 3.905l-1.711 2.963h-3.422c-5.891 0-10.667 4.776-10.667 10.667v3.422l-2.963 1.711c-5.102 2.946-6.85 9.47-3.904 14.572l1.71 2.963-1.711 2.963c-2.945 5.102-1.197 11.626 3.905 14.572l2.963 1.711v3.422c0 5.891 4.776 10.667 10.667 10.667h3.422l1.711 2.963c2.946 5.102 9.47 6.85 14.572 3.904l2.963-1.71 2.963 1.711c5.102 2.946 11.626 1.198 14.572-3.904l1.711-2.963h3.422c5.891 0 10.667-4.776 10.667-10.667v-3.422l2.963-1.711c5.102-2.946 6.85-9.47 3.904-14.572zM85.832 33.273c2.252 1.3 3.862 3.399 4.535 5.91 0.673 2.511 0.328 5.135-0.972 7.386l-1.441 2.497-4.618-7.999v-9.236zM73.72 73.72l-15.038 8.682h-17.364l-15.038-8.682-8.682-15.038v-17.364l8.682-15.038 15.038-8.682h17.364l15.038 8.682 8.682 15.038v17.364zM82.401 60.549v8.158l-7.065 4.079zM72.786 75.336l-4.079 7.065h-8.158zM57.065 83.335l-7.065 4.079-7.065-4.079zM39.451 82.401h-8.158l-4.079-7.065zM24.664 72.786l-7.065-4.079v-8.158zM16.665 57.065l-4.079-7.065 4.079-7.065zM17.599 39.451v-8.158l7.065-4.079zM27.214 24.664l4.079-7.065h8.158zM42.935 16.665l7.065-4.079 7.065 4.079zM60.549 17.599h8.158l4.079 7.065zM75.336 27.214l7.065 4.079v8.158zM83.335 42.935l4.079 7.065-4.079 7.065zM72.668 17.599c2.6 0 5.044 1.012 6.883 2.851 1.838 1.838 2.851 4.283 2.851 6.883v2.883l-7.999-4.618-4.618-7.999zM53.43 10.606c2.252-1.3 4.875-1.645 7.386-0.972 2.511 0.673 4.61 2.284 5.91 4.535l1.441 2.497h-9.236l-7.999-4.618zM33.273 14.168c1.3-2.252 3.399-3.862 5.91-4.535 2.511-0.673 5.135-0.328 7.386 0.972l2.497 1.441-7.999 4.618h-9.236zM17.599 27.332c0-2.6 1.012-5.044 2.851-6.883 1.838-1.838 4.283-2.851 6.883-2.851h2.883l-4.618 7.999-7.999 4.618zM10.606 46.57c-1.3-2.252-1.645-4.875-0.972-7.386 0.673-2.511 2.284-4.61 4.535-5.91l2.497-1.441v9.236l-4.618 7.999zM14.168 66.727c-2.252-1.3-3.862-3.399-4.535-5.91-0.673-2.511-0.328-5.135 0.972-7.386l1.441-2.497 4.618 7.999v9.236zM27.332 82.401c-2.6 0-5.044-1.012-6.883-2.851-1.838-1.838-2.851-4.283-2.851-6.883v-2.883l7.999 4.618 4.618 7.999zM46.57 89.394c-2.252 1.3-4.875 1.645-7.386 0.972-2.511-0.673-4.61-2.284-5.91-4.535l-1.441-2.497h9.236l7.999 4.618zM66.727 85.832c-1.3 2.252-3.399 3.862-5.91 4.535-2.511 0.673-5.135 0.328-7.386-0.972l-2.497-1.441 7.999-4.618h9.236zM82.401 72.668c0 2.6-1.012 5.044-2.851 6.883-1.838 1.838-4.283 2.851-6.883 2.851h-2.883l4.618-7.999 7.999-4.618zM90.367 60.816c-0.673 2.511-2.284 4.61-4.535 5.91l-2.497 1.441v-9.236l4.618-7.999 1.441 2.497c1.3 2.253 1.646 4.876 0.973 7.387z" fill="black" fill-rule="nonzero" stroke="none" stroke-width="1" stroke-linecap="butt" stroke-linejoin="miter" stroke-miterlimit="10" stroke-dasharray="" stroke-dashoffset="0" font-family="none" font-weight="none" font-size="none" text-anchor="none" style="mix-blend-mode: normal"></path></g><g transform="matrix(1,0,0,1,87.19553551741222,90)"><svg viewBox="0 0 145.60892896517555 180" height="180" width="145.60892896517555"><g><svg viewBox="0 0 145.60892896517555 180" height="180" width="145.60892896517555"><g><svg viewBox="0 0 192 237.34808191787135" height="180" width="145.60892896517555"><g transform="matrix(1,0,0,1,0,137.86621663289725)"><svg viewBox="0 0 192 99.4818652849741" height="99.4818652849741" width="192"><g id="SvgjsG3716"><svg viewBox="0 0 192 99.4818652849741" height="99.4818652849741" width="192" id="SvgjsSvg3715"><g><svg viewBox="0 0 192 99.4818652849741" height="99.4818652849741" width="192"><g transform="matrix(1,0,0,1,0,0)"><svg width="192" viewBox="4.6 -35 67.55000000000001 35" height="99.4818652849741" data-palette-color="url(#c5449fcb-31e4-4b59-b615-ae6d5798677d)"><g class="wordmark-text-0" data-fill-palette-color="primary" id="SvgjsG3714"><path d="M4.6-35L19.8-35Q23.45-35 26.08-33.95 28.7-32.9 30.13-30.95 31.55-29 31.55-26.25L31.55-26.25Q31.55-23.3 29.9-21.2 28.25-19.1 25.4-18.45L25.4-18.45Q28.9-17.85 30.9-15.5 32.9-13.15 32.9-9.6L32.9-9.6Q32.9-6.6 31.35-4.45 29.8-2.3 26.95-1.15 24.1 0 20.15 0L20.15 0 4.6 0 4.6-35ZM10.5-20.45L19.5-20.45Q22.3-20.45 23.9-21.73 25.5-23 25.5-25.3L25.5-25.3Q25.5-27.55 23.9-28.78 22.3-30 19.5-29.95L19.5-29.95 10.5-29.95 10.5-20.45ZM10.5-5.05L19.5-5.05Q22.95-5 24.9-6.38 26.85-7.75 26.85-10.3L26.85-10.3Q26.85-12.7 24.9-14.08 22.95-15.45 19.5-15.4L19.5-15.4 10.5-15.4 10.5-5.05ZM35.35 0L50.8-35 56.85-35 72.15 0 65.85 0 53.65-29.05 41.5 0 35.35 0ZM43.05-8.1L43.05-13.1 64-13.1 64-8.1 43.05-8.1Z" fill="white"></path></g></svg></g></svg></g></svg></g></svg></g><g transform="matrix(1,0,0,1,36.672,0)"><svg viewBox="0 0 118.656 123.34942492305268" height="123.34942492305268" width="118.656"><g><svg xmlns="http://www.w3.org/2000/svg" xmlns:xlink="http://www.w3.org/1999/xlink" version="1.1" x="0" y="0" viewBox="18.323 17.068999999999996 63.355 65.86100000000002" enable-background="new 0 0 100 100" xml:space="preserve" height="123.34942492305268" width="118.656" class="icon-icon-0" data-fill-palette-color="accent" id="SvgjsSvg3713"><g fill="black"><path d="M41.086 21.513c0.172-0.39 0.271-0.819 0.271-1.273 0-1.748-1.422-3.17-3.17-3.17s-3.17 1.422-3.17 3.17 1.422 3.17 3.17 3.17c0.375 0 0.73-0.077 1.064-0.197l24.309 26.045-13.675 27.35c-0.06-0.003-0.117-0.018-0.178-0.018-1.748 0-3.17 1.422-3.17 3.17s1.422 3.17 3.17 3.17c1.748 0 3.17-1.422 3.17-3.17 0-0.777-0.292-1.479-0.757-2.031l14.064-28.13c0.233-0.467 0.152-1.03-0.204-1.412L41.086 21.513z" fill="black"></path><path d="M58.506 49.599c0.24-0.481 0.146-1.062-0.234-1.442L31.527 21.412c0.146-0.363 0.23-0.757 0.23-1.172 0-1.748-1.422-3.17-3.17-3.17s-3.17 1.422-3.17 3.17 1.422 3.17 3.17 3.17c0.415 0 0.808-0.085 1.171-0.23l14.67 14.67c-0.029 0.024-0.065 0.034-0.092 0.061L31.114 51.134l-6.682-6.682c0.145-0.363 0.23-0.757 0.23-1.172 0-1.748-1.422-3.17-3.169-3.17-1.748 0-3.17 1.422-3.17 3.17 0 1.748 1.422 3.17 3.17 3.17 0.414 0 0.808-0.085 1.171-0.23l6.683 6.682-7.089 7.089c-0.088 0.088-0.142 0.193-0.198 0.297-0.287 0.229-0.482 0.566-0.482 0.962v6.018c-0.365 0.149-0.705 0.363-0.992 0.65-1.235 1.236-1.235 3.247 0 4.483 0.599 0.599 1.395 0.929 2.242 0.929s1.643-0.33 2.241-0.929c0.599-0.599 0.929-1.395 0.929-2.241s-0.33-1.643-0.929-2.242c-0.287-0.287-0.626-0.501-0.991-0.65v-5.562l22.028-22.028c0.027-0.027 0.037-0.063 0.061-0.092L48.9 42.32 27.704 63.516c-0.008 0.008-0.01 0.019-0.018 0.027-0.104 0.11-0.192 0.236-0.251 0.379-0.063 0.153-0.097 0.315-0.097 0.479v10.548c-0.365 0.149-0.705 0.363-0.992 0.65-1.236 1.235-1.236 3.247 0 4.483 0.599 0.599 1.395 0.928 2.242 0.928 0.847 0 1.643-0.329 2.241-0.928 1.236-1.236 1.236-3.247 0-4.483-0.287-0.287-0.626-0.501-0.991-0.65V64.917l20.83-20.83 5.199 5.199L42.206 76.608c-0.061-0.003-0.118-0.018-0.179-0.018-1.748 0-3.17 1.422-3.17 3.17s1.422 3.17 3.17 3.17c1.748 0 3.17-1.422 3.17-3.17 0-0.777-0.292-1.479-0.757-2.031L58.506 49.599z" fill="black"></path><path d="M78.508 74.67c-0.257 0-0.503 0.039-0.742 0.097l-3.768-5.023V49.04c0-0.313-0.118-0.614-0.329-0.845l-8.208-8.954 6.114-6.114c0.363 0.146 0.757 0.231 1.172 0.231 1.748 0 3.169-1.422 3.169-3.17 0-1.748-1.422-3.17-3.169-3.17-1.748 0-3.17 1.422-3.17 3.17 0 0.415 0.085 0.808 0.23 1.171l-6.038 6.037-3.066-3.345 10.872-10.872c0.363 0.145 0.757 0.23 1.172 0.23 1.748 0 3.169-1.422 3.169-3.17s-1.422-3.17-3.169-3.17c-1.748 0-3.17 1.422-3.17 3.17 0 0.415 0.085 0.809 0.23 1.172L59.013 32.207l-6.135-6.693V23.15c1.127-0.486 1.92-1.607 1.92-2.911 0-1.748-1.422-3.17-3.17-3.17-1.748 0-3.17 1.422-3.17 3.17 0 1.304 0.792 2.425 1.92 2.911V26c0 0.061 0.026 0.114 0.035 0.172 0.014 0.095 0.021 0.189 0.057 0.279 0.033 0.086 0.088 0.156 0.139 0.231 0.035 0.053 0.053 0.114 0.098 0.162l20.792 22.682V70.16c0 0.271 0.087 0.534 0.25 0.75l4.021 5.362c-0.267 0.464-0.432 0.995-0.432 1.568 0 1.748 1.422 3.17 3.17 3.17 1.748 0 3.17-1.422 3.17-3.17S80.255 74.67 78.508 74.67z" fill="black"></path></g></svg></g></svg></g><g></g></svg></g></svg></g></svg></g></svg></g><defs><mask></mask></defs></svg><rect width="320" height="360" fill="black" stroke="none" visibility="hidden"></rect></g></mask><linearGradient x1="0" x2="1" y1="0.578" y2="0.595" id="c5449fcb-31e4-4b59-b615-ae6d5798677d"><stop stop-color="#6ee2f5" offset="0"></stop><stop stop-color="#6454f0" offset="1"></stop></linearGradient><rect width="320.0000734559187" height="360" fill="url(#c5449fcb-31e4-4b59-b615-ae6d5798677d)" mask="url(#02eaf361-482c-4b8f-9f31-eda46d841415)" data-fill-palette-color="primary"></rect><mask id="607b05da-3f0f-401f-a666-484e362d00a6"><g id="SvgjsG3727"><svg viewBox="0 0 320 360" height="360" width="320"><g><svg></svg></g><g><svg viewBox="0 0 320 360" height="360" width="320"><g><path transform="translate(-32.1528,-12.1528) scale(3.84303,3.84303)" d="M88.492 50l1.711-2.963c2.946-5.102 1.198-11.626-3.904-14.572l-2.963-1.711v-3.422c0-5.891-4.776-10.667-10.667-10.667h-3.422l-1.711-2.963c-2.946-5.102-9.47-6.85-14.572-3.904l-2.964 1.71-2.963-1.711c-5.102-2.945-11.626-1.197-14.572 3.905l-1.711 2.963h-3.422c-5.891 0-10.667 4.776-10.667 10.667v3.422l-2.963 1.711c-5.102 2.946-6.85 9.47-3.904 14.572l1.71 2.963-1.711 2.963c-2.945 5.102-1.197 11.626 3.905 14.572l2.963 1.711v3.422c0 5.891 4.776 10.667 10.667 10.667h3.422l1.711 2.963c2.946 5.102 9.47 6.85 14.572 3.904l2.963-1.71 2.963 1.711c5.102 2.946 11.626 1.198 14.572-3.904l1.711-2.963h3.422c5.891 0 10.667-4.776 10.667-10.667v-3.422l2.963-1.711c5.102-2.946 6.85-9.47 3.904-14.572zM85.832 33.273c2.252 1.3 3.862 3.399 4.535 5.91 0.673 2.511 0.328 5.135-0.972 7.386l-1.441 2.497-4.618-7.999v-9.236zM73.72 73.72l-15.038 8.682h-17.364l-15.038-8.682-8.682-15.038v-17.364l8.682-15.038 15.038-8.682h17.364l15.038 8.682 8.682 15.038v17.364zM82.401 60.549v8.158l-7.065 4.079zM72.786 75.336l-4.079 7.065h-8.158zM57.065 83.335l-7.065 4.079-7.065-4.079zM39.451 82.401h-8.158l-4.079-7.065zM24.664 72.786l-7.065-4.079v-8.158zM16.665 57.065l-4.079-7.065 4.079-7.065zM17.599 39.451v-8.158l7.065-4.079zM27.214 24.664l4.079-7.065h8.158zM42.935 16.665l7.065-4.079 7.065 4.079zM60.549 17.599h8.158l4.079 7.065zM75.336 27.214l7.065 4.079v8.158zM83.335 42.935l4.079 7.065-4.079 7.065zM72.668 17.599c2.6 0 5.044 1.012 6.883 2.851 1.838 1.838 2.851 4.283 2.851 6.883v2.883l-7.999-4.618-4.618-7.999zM53.43 10.606c2.252-1.3 4.875-1.645 7.386-0.972 2.511 0.673 4.61 2.284 5.91 4.535l1.441 2.497h-9.236l-7.999-4.618zM33.273 14.168c1.3-2.252 3.399-3.862 5.91-4.535 2.511-0.673 5.135-0.328 7.386 0.972l2.497 1.441-7.999 4.618h-9.236zM17.599 27.332c0-2.6 1.012-5.044 2.851-6.883 1.838-1.838 4.283-2.851 6.883-2.851h2.883l-4.618 7.999-7.999 4.618zM10.606 46.57c-1.3-2.252-1.645-4.875-0.972-7.386 0.673-2.511 2.284-4.61 4.535-5.91l2.497-1.441v9.236l-4.618 7.999zM14.168 66.727c-2.252-1.3-3.862-3.399-4.535-5.91-0.673-2.511-0.328-5.135 0.972-7.386l1.441-2.497 4.618 7.999v9.236zM27.332 82.401c-2.6 0-5.044-1.012-6.883-2.851-1.838-1.838-2.851-4.283-2.851-6.883v-2.883l7.999 4.618 4.618 7.999zM46.57 89.394c-2.252 1.3-4.875 1.645-7.386 0.972-2.511-0.673-4.61-2.284-5.91-4.535l-1.441-2.497h9.236l7.999 4.618zM66.727 85.832c-1.3 2.252-3.399 3.862-5.91 4.535-2.511 0.673-5.135 0.328-7.386-0.972l-2.497-1.441 7.999-4.618h9.236zM82.401 72.668c0 2.6-1.012 5.044-2.851 6.883-1.838 1.838-4.283 2.851-6.883 2.851h-2.883l4.618-7.999 7.999-4.618zM90.367 60.816c-0.673 2.511-2.284 4.61-4.535 5.91l-2.497 1.441v-9.236l4.618-7.999 1.441 2.497c1.3 2.253 1.646 4.876 0.973 7.387z" fill="black" fill-rule="nonzero" stroke="none" stroke-width="1" stroke-linecap="butt" stroke-linejoin="miter" stroke-miterlimit="10" stroke-dasharray="" stroke-dashoffset="0" font-family="none" font-weight="none" font-size="none" text-anchor="none" style="mix-blend-mode: normal"></path></g><g transform="matrix(1,0,0,1,87.19553551741222,90)"><svg viewBox="0 0 145.60892896517555 180" height="180" width="145.60892896517555"><g><svg viewBox="0 0 145.60892896517555 180" height="180" width="145.60892896517555"><g><svg viewBox="0 0 192 237.34808191787135" height="180" width="145.60892896517555"><g transform="matrix(1,0,0,1,0,137.86621663289725)"><svg viewBox="0 0 192 99.4818652849741" height="99.4818652849741" width="192"><g id="SvgjsG3726"><svg viewBox="0 0 192 99.4818652849741" height="99.4818652849741" width="192" id="SvgjsSvg3725"><g><svg viewBox="0 0 192 99.4818652849741" height="99.4818652849741" width="192"><g transform="matrix(1,0,0,1,0,0)"><svg width="192" viewBox="4.6 -35 67.55000000000001 35" height="99.4818652849741" data-palette-color="url(#c5449fcb-31e4-4b59-b615-ae6d5798677d)"><g class="wordmark-text-0" data-fill-palette-color="primary" id="SvgjsG3724"></g></svg></g></svg></g></svg></g></svg></g><g transform="matrix(1,0,0,1,36.672,0)"><svg viewBox="0 0 118.656 123.34942492305268" height="123.34942492305268" width="118.656"><g><svg xmlns="http://www.w3.org/2000/svg" xmlns:xlink="http://www.w3.org/1999/xlink" version="1.1" x="0" y="0" viewBox="18.323 17.068999999999996 63.355 65.86100000000002" enable-background="new 0 0 100 100" xml:space="preserve" height="123.34942492305268" width="118.656" class="icon-icon-0" data-fill-palette-color="accent" id="SvgjsSvg3723"><g fill="white"><path d="M41.086 21.513c0.172-0.39 0.271-0.819 0.271-1.273 0-1.748-1.422-3.17-3.17-3.17s-3.17 1.422-3.17 3.17 1.422 3.17 3.17 3.17c0.375 0 0.73-0.077 1.064-0.197l24.309 26.045-13.675 27.35c-0.06-0.003-0.117-0.018-0.178-0.018-1.748 0-3.17 1.422-3.17 3.17s1.422 3.17 3.17 3.17c1.748 0 3.17-1.422 3.17-3.17 0-0.777-0.292-1.479-0.757-2.031l14.064-28.13c0.233-0.467 0.152-1.03-0.204-1.412L41.086 21.513z" fill="white"></path><path d="M58.506 49.599c0.24-0.481 0.146-1.062-0.234-1.442L31.527 21.412c0.146-0.363 0.23-0.757 0.23-1.172 0-1.748-1.422-3.17-3.17-3.17s-3.17 1.422-3.17 3.17 1.422 3.17 3.17 3.17c0.415 0 0.808-0.085 1.171-0.23l14.67 14.67c-0.029 0.024-0.065 0.034-0.092 0.061L31.114 51.134l-6.682-6.682c0.145-0.363 0.23-0.757 0.23-1.172 0-1.748-1.422-3.17-3.169-3.17-1.748 0-3.17 1.422-3.17 3.17 0 1.748 1.422 3.17 3.17 3.17 0.414 0 0.808-0.085 1.171-0.23l6.683 6.682-7.089 7.089c-0.088 0.088-0.142 0.193-0.198 0.297-0.287 0.229-0.482 0.566-0.482 0.962v6.018c-0.365 0.149-0.705 0.363-0.992 0.65-1.235 1.236-1.235 3.247 0 4.483 0.599 0.599 1.395 0.929 2.242 0.929s1.643-0.33 2.241-0.929c0.599-0.599 0.929-1.395 0.929-2.241s-0.33-1.643-0.929-2.242c-0.287-0.287-0.626-0.501-0.991-0.65v-5.562l22.028-22.028c0.027-0.027 0.037-0.063 0.061-0.092L48.9 42.32 27.704 63.516c-0.008 0.008-0.01 0.019-0.018 0.027-0.104 0.11-0.192 0.236-0.251 0.379-0.063 0.153-0.097 0.315-0.097 0.479v10.548c-0.365 0.149-0.705 0.363-0.992 0.65-1.236 1.235-1.236 3.247 0 4.483 0.599 0.599 1.395 0.928 2.242 0.928 0.847 0 1.643-0.329 2.241-0.928 1.236-1.236 1.236-3.247 0-4.483-0.287-0.287-0.626-0.501-0.991-0.65V64.917l20.83-20.83 5.199 5.199L42.206 76.608c-0.061-0.003-0.118-0.018-0.179-0.018-1.748 0-3.17 1.422-3.17 3.17s1.422 3.17 3.17 3.17c1.748 0 3.17-1.422 3.17-3.17 0-0.777-0.292-1.479-0.757-2.031L58.506 49.599z" fill="white"></path><path d="M78.508 74.67c-0.257 0-0.503 0.039-0.742 0.097l-3.768-5.023V49.04c0-0.313-0.118-0.614-0.329-0.845l-8.208-8.954 6.114-6.114c0.363 0.146 0.757 0.231 1.172 0.231 1.748 0 3.169-1.422 3.169-3.17 0-1.748-1.422-3.17-3.169-3.17-1.748 0-3.17 1.422-3.17 3.17 0 0.415 0.085 0.808 0.23 1.171l-6.038 6.037-3.066-3.345 10.872-10.872c0.363 0.145 0.757 0.23 1.172 0.23 1.748 0 3.169-1.422 3.169-3.17s-1.422-3.17-3.169-3.17c-1.748 0-3.17 1.422-3.17 3.17 0 0.415 0.085 0.809 0.23 1.172L59.013 32.207l-6.135-6.693V23.15c1.127-0.486 1.92-1.607 1.92-2.911 0-1.748-1.422-3.17-3.17-3.17-1.748 0-3.17 1.422-3.17 3.17 0 1.304 0.792 2.425 1.92 2.911V26c0 0.061 0.026 0.114 0.035 0.172 0.014 0.095 0.021 0.189 0.057 0.279 0.033 0.086 0.088 0.156 0.139 0.231 0.035 0.053 0.053 0.114 0.098 0.162l20.792 22.682V70.16c0 0.271 0.087 0.534 0.25 0.75l4.021 5.362c-0.267 0.464-0.432 0.995-0.432 1.568 0 1.748 1.422 3.17 3.17 3.17 1.748 0 3.17-1.422 3.17-3.17S80.255 74.67 78.508 74.67z" fill="white"></path></g></svg></g></svg></g><g></g></svg></g></svg></g></svg></g></svg></g><defs><mask></mask></defs><mask><g id="SvgjsG3722"><svg viewBox="0 0 320 360" height="360" width="320"><g><svg></svg></g><g><svg viewBox="0 0 320 360" height="360" width="320"><g><path transform="translate(-32.1528,-12.1528) scale(3.84303,3.84303)" d="M88.492 50l1.711-2.963c2.946-5.102 1.198-11.626-3.904-14.572l-2.963-1.711v-3.422c0-5.891-4.776-10.667-10.667-10.667h-3.422l-1.711-2.963c-2.946-5.102-9.47-6.85-14.572-3.904l-2.964 1.71-2.963-1.711c-5.102-2.945-11.626-1.197-14.572 3.905l-1.711 2.963h-3.422c-5.891 0-10.667 4.776-10.667 10.667v3.422l-2.963 1.711c-5.102 2.946-6.85 9.47-3.904 14.572l1.71 2.963-1.711 2.963c-2.945 5.102-1.197 11.626 3.905 14.572l2.963 1.711v3.422c0 5.891 4.776 10.667 10.667 10.667h3.422l1.711 2.963c2.946 5.102 9.47 6.85 14.572 3.904l2.963-1.71 2.963 1.711c5.102 2.946 11.626 1.198 14.572-3.904l1.711-2.963h3.422c5.891 0 10.667-4.776 10.667-10.667v-3.422l2.963-1.711c5.102-2.946 6.85-9.47 3.904-14.572zM85.832 33.273c2.252 1.3 3.862 3.399 4.535 5.91 0.673 2.511 0.328 5.135-0.972 7.386l-1.441 2.497-4.618-7.999v-9.236zM73.72 73.72l-15.038 8.682h-17.364l-15.038-8.682-8.682-15.038v-17.364l8.682-15.038 15.038-8.682h17.364l15.038 8.682 8.682 15.038v17.364zM82.401 60.549v8.158l-7.065 4.079zM72.786 75.336l-4.079 7.065h-8.158zM57.065 83.335l-7.065 4.079-7.065-4.079zM39.451 82.401h-8.158l-4.079-7.065zM24.664 72.786l-7.065-4.079v-8.158zM16.665 57.065l-4.079-7.065 4.079-7.065zM17.599 39.451v-8.158l7.065-4.079zM27.214 24.664l4.079-7.065h8.158zM42.935 16.665l7.065-4.079 7.065 4.079zM60.549 17.599h8.158l4.079 7.065zM75.336 27.214l7.065 4.079v8.158zM83.335 42.935l4.079 7.065-4.079 7.065zM72.668 17.599c2.6 0 5.044 1.012 6.883 2.851 1.838 1.838 2.851 4.283 2.851 6.883v2.883l-7.999-4.618-4.618-7.999zM53.43 10.606c2.252-1.3 4.875-1.645 7.386-0.972 2.511 0.673 4.61 2.284 5.91 4.535l1.441 2.497h-9.236l-7.999-4.618zM33.273 14.168c1.3-2.252 3.399-3.862 5.91-4.535 2.511-0.673 5.135-0.328 7.386 0.972l2.497 1.441-7.999 4.618h-9.236zM17.599 27.332c0-2.6 1.012-5.044 2.851-6.883 1.838-1.838 4.283-2.851 6.883-2.851h2.883l-4.618 7.999-7.999 4.618zM10.606 46.57c-1.3-2.252-1.645-4.875-0.972-7.386 0.673-2.511 2.284-4.61 4.535-5.91l2.497-1.441v9.236l-4.618 7.999zM14.168 66.727c-2.252-1.3-3.862-3.399-4.535-5.91-0.673-2.511-0.328-5.135 0.972-7.386l1.441-2.497 4.618 7.999v9.236zM27.332 82.401c-2.6 0-5.044-1.012-6.883-2.851-1.838-1.838-2.851-4.283-2.851-6.883v-2.883l7.999 4.618 4.618 7.999zM46.57 89.394c-2.252 1.3-4.875 1.645-7.386 0.972-2.511-0.673-4.61-2.284-5.91-4.535l-1.441-2.497h9.236l7.999 4.618zM66.727 85.832c-1.3 2.252-3.399 3.862-5.91 4.535-2.511 0.673-5.135 0.328-7.386-0.972l-2.497-1.441 7.999-4.618h9.236zM82.401 72.668c0 2.6-1.012 5.044-2.851 6.883-1.838 1.838-4.283 2.851-6.883 2.851h-2.883l4.618-7.999 7.999-4.618zM90.367 60.816c-0.673 2.511-2.284 4.61-4.535 5.91l-2.497 1.441v-9.236l4.618-7.999 1.441 2.497c1.3 2.253 1.646 4.876 0.973 7.387z" fill="black" fill-rule="nonzero" stroke="none" stroke-width="1" stroke-linecap="butt" stroke-linejoin="miter" stroke-miterlimit="10" stroke-dasharray="" stroke-dashoffset="0" font-family="none" font-weight="none" font-size="none" text-anchor="none" style="mix-blend-mode: normal"></path></g><g transform="matrix(1,0,0,1,87.19553551741222,90)"><svg viewBox="0 0 145.60892896517555 180" height="180" width="145.60892896517555"><g><svg viewBox="0 0 145.60892896517555 180" height="180" width="145.60892896517555"><g><svg viewBox="0 0 192 237.34808191787135" height="180" width="145.60892896517555"><g transform="matrix(1,0,0,1,0,137.86621663289725)"><svg viewBox="0 0 192 99.4818652849741" height="99.4818652849741" width="192"><g id="SvgjsG3721"><svg viewBox="0 0 192 99.4818652849741" height="99.4818652849741" width="192" id="SvgjsSvg3720"><g><svg viewBox="0 0 192 99.4818652849741" height="99.4818652849741" width="192"><g transform="matrix(1,0,0,1,0,0)"><svg width="192" viewBox="4.6 -35 67.55000000000001 35" height="99.4818652849741" data-palette-color="url(#c5449fcb-31e4-4b59-b615-ae6d5798677d)"><g class="wordmark-text-0" data-fill-palette-color="primary" id="SvgjsG3719"><path d="M4.6-35L19.8-35Q23.45-35 26.08-33.95 28.7-32.9 30.13-30.95 31.55-29 31.55-26.25L31.55-26.25Q31.55-23.3 29.9-21.2 28.25-19.1 25.4-18.45L25.4-18.45Q28.9-17.85 30.9-15.5 32.9-13.15 32.9-9.6L32.9-9.6Q32.9-6.6 31.35-4.45 29.8-2.3 26.95-1.15 24.1 0 20.15 0L20.15 0 4.6 0 4.6-35ZM10.5-20.45L19.5-20.45Q22.3-20.45 23.9-21.73 25.5-23 25.5-25.3L25.5-25.3Q25.5-27.55 23.9-28.78 22.3-30 19.5-29.95L19.5-29.95 10.5-29.95 10.5-20.45ZM10.5-5.05L19.5-5.05Q22.95-5 24.9-6.38 26.85-7.75 26.85-10.3L26.85-10.3Q26.85-12.7 24.9-14.08 22.95-15.45 19.5-15.4L19.5-15.4 10.5-15.4 10.5-5.05ZM35.35 0L50.8-35 56.85-35 72.15 0 65.85 0 53.65-29.05 41.5 0 35.35 0ZM43.05-8.1L43.05-13.1 64-13.1 64-8.1 43.05-8.1Z" fill="black"></path></g></svg></g></svg></g></svg></g></svg></g><g transform="matrix(1,0,0,1,36.672,0)"><svg viewBox="0 0 118.656 123.34942492305268" height="123.34942492305268" width="118.656"><g><svg xmlns="http://www.w3.org/2000/svg" xmlns:xlink="http://www.w3.org/1999/xlink" version="1.1" x="0" y="0" viewBox="18.323 17.068999999999996 63.355 65.86100000000002" enable-background="new 0 0 100 100" xml:space="preserve" height="123.34942492305268" width="118.656" class="icon-icon-0" data-fill-palette-color="accent" id="SvgjsSvg3718"><g fill="black"><path d="M41.086 21.513c0.172-0.39 0.271-0.819 0.271-1.273 0-1.748-1.422-3.17-3.17-3.17s-3.17 1.422-3.17 3.17 1.422 3.17 3.17 3.17c0.375 0 0.73-0.077 1.064-0.197l24.309 26.045-13.675 27.35c-0.06-0.003-0.117-0.018-0.178-0.018-1.748 0-3.17 1.422-3.17 3.17s1.422 3.17 3.17 3.17c1.748 0 3.17-1.422 3.17-3.17 0-0.777-0.292-1.479-0.757-2.031l14.064-28.13c0.233-0.467 0.152-1.03-0.204-1.412L41.086 21.513z" fill="black"></path><path d="M58.506 49.599c0.24-0.481 0.146-1.062-0.234-1.442L31.527 21.412c0.146-0.363 0.23-0.757 0.23-1.172 0-1.748-1.422-3.17-3.17-3.17s-3.17 1.422-3.17 3.17 1.422 3.17 3.17 3.17c0.415 0 0.808-0.085 1.171-0.23l14.67 14.67c-0.029 0.024-0.065 0.034-0.092 0.061L31.114 51.134l-6.682-6.682c0.145-0.363 0.23-0.757 0.23-1.172 0-1.748-1.422-3.17-3.169-3.17-1.748 0-3.17 1.422-3.17 3.17 0 1.748 1.422 3.17 3.17 3.17 0.414 0 0.808-0.085 1.171-0.23l6.683 6.682-7.089 7.089c-0.088 0.088-0.142 0.193-0.198 0.297-0.287 0.229-0.482 0.566-0.482 0.962v6.018c-0.365 0.149-0.705 0.363-0.992 0.65-1.235 1.236-1.235 3.247 0 4.483 0.599 0.599 1.395 0.929 2.242 0.929s1.643-0.33 2.241-0.929c0.599-0.599 0.929-1.395 0.929-2.241s-0.33-1.643-0.929-2.242c-0.287-0.287-0.626-0.501-0.991-0.65v-5.562l22.028-22.028c0.027-0.027 0.037-0.063 0.061-0.092L48.9 42.32 27.704 63.516c-0.008 0.008-0.01 0.019-0.018 0.027-0.104 0.11-0.192 0.236-0.251 0.379-0.063 0.153-0.097 0.315-0.097 0.479v10.548c-0.365 0.149-0.705 0.363-0.992 0.65-1.236 1.235-1.236 3.247 0 4.483 0.599 0.599 1.395 0.928 2.242 0.928 0.847 0 1.643-0.329 2.241-0.928 1.236-1.236 1.236-3.247 0-4.483-0.287-0.287-0.626-0.501-0.991-0.65V64.917l20.83-20.83 5.199 5.199L42.206 76.608c-0.061-0.003-0.118-0.018-0.179-0.018-1.748 0-3.17 1.422-3.17 3.17s1.422 3.17 3.17 3.17c1.748 0 3.17-1.422 3.17-3.17 0-0.777-0.292-1.479-0.757-2.031L58.506 49.599z" fill="black"></path><path d="M78.508 74.67c-0.257 0-0.503 0.039-0.742 0.097l-3.768-5.023V49.04c0-0.313-0.118-0.614-0.329-0.845l-8.208-8.954 6.114-6.114c0.363 0.146 0.757 0.231 1.172 0.231 1.748 0 3.169-1.422 3.169-3.17 0-1.748-1.422-3.17-3.169-3.17-1.748 0-3.17 1.422-3.17 3.17 0 0.415 0.085 0.808 0.23 1.171l-6.038 6.037-3.066-3.345 10.872-10.872c0.363 0.145 0.757 0.23 1.172 0.23 1.748 0 3.169-1.422 3.169-3.17s-1.422-3.17-3.169-3.17c-1.748 0-3.17 1.422-3.17 3.17 0 0.415 0.085 0.809 0.23 1.172L59.013 32.207l-6.135-6.693V23.15c1.127-0.486 1.92-1.607 1.92-2.911 0-1.748-1.422-3.17-3.17-3.17-1.748 0-3.17 1.422-3.17 3.17 0 1.304 0.792 2.425 1.92 2.911V26c0 0.061 0.026 0.114 0.035 0.172 0.014 0.095 0.021 0.189 0.057 0.279 0.033 0.086 0.088 0.156 0.139 0.231 0.035 0.053 0.053 0.114 0.098 0.162l20.792 22.682V70.16c0 0.271 0.087 0.534 0.25 0.75l4.021 5.362c-0.267 0.464-0.432 0.995-0.432 1.568 0 1.748 1.422 3.17 3.17 3.17 1.748 0 3.17-1.422 3.17-3.17S80.255 74.67 78.508 74.67z" fill="black"></path></g></svg></g></svg></g><g></g></svg></g></svg></g></svg></g></svg></g><defs><mask></mask></defs></svg><rect width="320" height="360" fill="black" stroke="none" visibility="hidden"></rect></g></mask></svg><rect width="320" height="360" fill="black" stroke="none" visibility="hidden"></rect></g></mask><linearGradient x1="0" x2="1" y1="0.578" y2="0.595" id="4813222b-0f9d-4ffb-ad00-bc76c37052b3"><stop stop-color="#6ee2f5" offset="0"></stop><stop stop-color="#6454f0" offset="1"></stop></linearGradient><rect width="320.0000734559187" height="360" fill="url(#4813222b-0f9d-4ffb-ad00-bc76c37052b3)" mask="url(#607b05da-3f0f-401f-a666-484e362d00a6)" data-fill-palette-color="accent"></rect><mask id="97752b96-befc-446e-996e-8010148c9bfa"><g id="SvgjsG3747"><svg viewBox="0 0 320 360" height="360" width="320"><g><svg></svg></g><g><svg viewBox="0 0 320 360" height="360" width="320"><g><path transform="translate(-32.1528,-12.1528) scale(3.84303,3.84303)" d="M88.492 50l1.711-2.963c2.946-5.102 1.198-11.626-3.904-14.572l-2.963-1.711v-3.422c0-5.891-4.776-10.667-10.667-10.667h-3.422l-1.711-2.963c-2.946-5.102-9.47-6.85-14.572-3.904l-2.964 1.71-2.963-1.711c-5.102-2.945-11.626-1.197-14.572 3.905l-1.711 2.963h-3.422c-5.891 0-10.667 4.776-10.667 10.667v3.422l-2.963 1.711c-5.102 2.946-6.85 9.47-3.904 14.572l1.71 2.963-1.711 2.963c-2.945 5.102-1.197 11.626 3.905 14.572l2.963 1.711v3.422c0 5.891 4.776 10.667 10.667 10.667h3.422l1.711 2.963c2.946 5.102 9.47 6.85 14.572 3.904l2.963-1.71 2.963 1.711c5.102 2.946 11.626 1.198 14.572-3.904l1.711-2.963h3.422c5.891 0 10.667-4.776 10.667-10.667v-3.422l2.963-1.711c5.102-2.946 6.85-9.47 3.904-14.572zM85.832 33.273c2.252 1.3 3.862 3.399 4.535 5.91 0.673 2.511 0.328 5.135-0.972 7.386l-1.441 2.497-4.618-7.999v-9.236zM73.72 73.72l-15.038 8.682h-17.364l-15.038-8.682-8.682-15.038v-17.364l8.682-15.038 15.038-8.682h17.364l15.038 8.682 8.682 15.038v17.364zM82.401 60.549v8.158l-7.065 4.079zM72.786 75.336l-4.079 7.065h-8.158zM57.065 83.335l-7.065 4.079-7.065-4.079zM39.451 82.401h-8.158l-4.079-7.065zM24.664 72.786l-7.065-4.079v-8.158zM16.665 57.065l-4.079-7.065 4.079-7.065zM17.599 39.451v-8.158l7.065-4.079zM27.214 24.664l4.079-7.065h8.158zM42.935 16.665l7.065-4.079 7.065 4.079zM60.549 17.599h8.158l4.079 7.065zM75.336 27.214l7.065 4.079v8.158zM83.335 42.935l4.079 7.065-4.079 7.065zM72.668 17.599c2.6 0 5.044 1.012 6.883 2.851 1.838 1.838 2.851 4.283 2.851 6.883v2.883l-7.999-4.618-4.618-7.999zM53.43 10.606c2.252-1.3 4.875-1.645 7.386-0.972 2.511 0.673 4.61 2.284 5.91 4.535l1.441 2.497h-9.236l-7.999-4.618zM33.273 14.168c1.3-2.252 3.399-3.862 5.91-4.535 2.511-0.673 5.135-0.328 7.386 0.972l2.497 1.441-7.999 4.618h-9.236zM17.599 27.332c0-2.6 1.012-5.044 2.851-6.883 1.838-1.838 4.283-2.851 6.883-2.851h2.883l-4.618 7.999-7.999 4.618zM10.606 46.57c-1.3-2.252-1.645-4.875-0.972-7.386 0.673-2.511 2.284-4.61 4.535-5.91l2.497-1.441v9.236l-4.618 7.999zM14.168 66.727c-2.252-1.3-3.862-3.399-4.535-5.91-0.673-2.511-0.328-5.135 0.972-7.386l1.441-2.497 4.618 7.999v9.236zM27.332 82.401c-2.6 0-5.044-1.012-6.883-2.851-1.838-1.838-2.851-4.283-2.851-6.883v-2.883l7.999 4.618 4.618 7.999zM46.57 89.394c-2.252 1.3-4.875 1.645-7.386 0.972-2.511-0.673-4.61-2.284-5.91-4.535l-1.441-2.497h9.236l7.999 4.618zM66.727 85.832c-1.3 2.252-3.399 3.862-5.91 4.535-2.511 0.673-5.135 0.328-7.386-0.972l-2.497-1.441 7.999-4.618h9.236zM82.401 72.668c0 2.6-1.012 5.044-2.851 6.883-1.838 1.838-4.283 2.851-6.883 2.851h-2.883l4.618-7.999 7.999-4.618zM90.367 60.816c-0.673 2.511-2.284 4.61-4.535 5.91l-2.497 1.441v-9.236l4.618-7.999 1.441 2.497c1.3 2.253 1.646 4.876 0.973 7.387z" fill="white" fill-rule="nonzero" stroke="none" stroke-width="1" stroke-linecap="butt" stroke-linejoin="miter" stroke-miterlimit="10" stroke-dasharray="" stroke-dashoffset="0" font-family="none" font-weight="none" font-size="none" text-anchor="none" style="mix-blend-mode: normal"></path></g><g transform="matrix(1,0,0,1,87.19553551741222,90)"><svg viewBox="0 0 145.60892896517555 180" height="180" width="145.60892896517555"><g><svg viewBox="0 0 145.60892896517555 180" height="180" width="145.60892896517555"><g><svg viewBox="0 0 192 237.34808191787135" height="180" width="145.60892896517555"><g transform="matrix(1,0,0,1,0,137.86621663289725)"><svg viewBox="0 0 192 99.4818652849741" height="99.4818652849741" width="192"><g id="SvgjsG3746"><svg viewBox="0 0 192 99.4818652849741" height="99.4818652849741" width="192" id="SvgjsSvg3745"><g><svg viewBox="0 0 192 99.4818652849741" height="99.4818652849741" width="192"><g transform="matrix(1,0,0,1,0,0)"><svg width="192" viewBox="4.6 -35 67.55000000000001 35" height="99.4818652849741" data-palette-color="url(#c5449fcb-31e4-4b59-b615-ae6d5798677d)"><g class="wordmark-text-0" data-fill-palette-color="primary" id="SvgjsG3744"></g></svg></g></svg></g></svg></g></svg></g><g transform="matrix(1,0,0,1,36.672,0)"><svg viewBox="0 0 118.656 123.34942492305268" height="123.34942492305268" width="118.656"><g><svg xmlns="http://www.w3.org/2000/svg" xmlns:xlink="http://www.w3.org/1999/xlink" version="1.1" x="0" y="0" viewBox="18.323 17.068999999999996 63.355 65.86100000000002" enable-background="new 0 0 100 100" xml:space="preserve" height="123.34942492305268" width="118.656" class="icon-icon-0" data-fill-palette-color="accent" id="SvgjsSvg3743"></svg></g></svg></g><g></g></svg></g></svg></g></svg></g></svg></g><defs><mask></mask></defs><mask><g id="SvgjsG3742"><svg viewBox="0 0 320 360" height="360" width="320"><g><svg></svg></g><g><svg viewBox="0 0 320 360" height="360" width="320"><g><path transform="translate(-32.1528,-12.1528) scale(3.84303,3.84303)" d="M88.492 50l1.711-2.963c2.946-5.102 1.198-11.626-3.904-14.572l-2.963-1.711v-3.422c0-5.891-4.776-10.667-10.667-10.667h-3.422l-1.711-2.963c-2.946-5.102-9.47-6.85-14.572-3.904l-2.964 1.71-2.963-1.711c-5.102-2.945-11.626-1.197-14.572 3.905l-1.711 2.963h-3.422c-5.891 0-10.667 4.776-10.667 10.667v3.422l-2.963 1.711c-5.102 2.946-6.85 9.47-3.904 14.572l1.71 2.963-1.711 2.963c-2.945 5.102-1.197 11.626 3.905 14.572l2.963 1.711v3.422c0 5.891 4.776 10.667 10.667 10.667h3.422l1.711 2.963c2.946 5.102 9.47 6.85 14.572 3.904l2.963-1.71 2.963 1.711c5.102 2.946 11.626 1.198 14.572-3.904l1.711-2.963h3.422c5.891 0 10.667-4.776 10.667-10.667v-3.422l2.963-1.711c5.102-2.946 6.85-9.47 3.904-14.572zM85.832 33.273c2.252 1.3 3.862 3.399 4.535 5.91 0.673 2.511 0.328 5.135-0.972 7.386l-1.441 2.497-4.618-7.999v-9.236zM73.72 73.72l-15.038 8.682h-17.364l-15.038-8.682-8.682-15.038v-17.364l8.682-15.038 15.038-8.682h17.364l15.038 8.682 8.682 15.038v17.364zM82.401 60.549v8.158l-7.065 4.079zM72.786 75.336l-4.079 7.065h-8.158zM57.065 83.335l-7.065 4.079-7.065-4.079zM39.451 82.401h-8.158l-4.079-7.065zM24.664 72.786l-7.065-4.079v-8.158zM16.665 57.065l-4.079-7.065 4.079-7.065zM17.599 39.451v-8.158l7.065-4.079zM27.214 24.664l4.079-7.065h8.158zM42.935 16.665l7.065-4.079 7.065 4.079zM60.549 17.599h8.158l4.079 7.065zM75.336 27.214l7.065 4.079v8.158zM83.335 42.935l4.079 7.065-4.079 7.065zM72.668 17.599c2.6 0 5.044 1.012 6.883 2.851 1.838 1.838 2.851 4.283 2.851 6.883v2.883l-7.999-4.618-4.618-7.999zM53.43 10.606c2.252-1.3 4.875-1.645 7.386-0.972 2.511 0.673 4.61 2.284 5.91 4.535l1.441 2.497h-9.236l-7.999-4.618zM33.273 14.168c1.3-2.252 3.399-3.862 5.91-4.535 2.511-0.673 5.135-0.328 7.386 0.972l2.497 1.441-7.999 4.618h-9.236zM17.599 27.332c0-2.6 1.012-5.044 2.851-6.883 1.838-1.838 4.283-2.851 6.883-2.851h2.883l-4.618 7.999-7.999 4.618zM10.606 46.57c-1.3-2.252-1.645-4.875-0.972-7.386 0.673-2.511 2.284-4.61 4.535-5.91l2.497-1.441v9.236l-4.618 7.999zM14.168 66.727c-2.252-1.3-3.862-3.399-4.535-5.91-0.673-2.511-0.328-5.135 0.972-7.386l1.441-2.497 4.618 7.999v9.236zM27.332 82.401c-2.6 0-5.044-1.012-6.883-2.851-1.838-1.838-2.851-4.283-2.851-6.883v-2.883l7.999 4.618 4.618 7.999zM46.57 89.394c-2.252 1.3-4.875 1.645-7.386 0.972-2.511-0.673-4.61-2.284-5.91-4.535l-1.441-2.497h9.236l7.999 4.618zM66.727 85.832c-1.3 2.252-3.399 3.862-5.91 4.535-2.511 0.673-5.135 0.328-7.386-0.972l-2.497-1.441 7.999-4.618h9.236zM82.401 72.668c0 2.6-1.012 5.044-2.851 6.883-1.838 1.838-4.283 2.851-6.883 2.851h-2.883l4.618-7.999 7.999-4.618zM90.367 60.816c-0.673 2.511-2.284 4.61-4.535 5.91l-2.497 1.441v-9.236l4.618-7.999 1.441 2.497c1.3 2.253 1.646 4.876 0.973 7.387z" fill="black" fill-rule="nonzero" stroke="none" stroke-width="1" stroke-linecap="butt" stroke-linejoin="miter" stroke-miterlimit="10" stroke-dasharray="" stroke-dashoffset="0" font-family="none" font-weight="none" font-size="none" text-anchor="none" style="mix-blend-mode: normal"></path></g><g transform="matrix(1,0,0,1,87.19553551741222,90)"><svg viewBox="0 0 145.60892896517555 180" height="180" width="145.60892896517555"><g><svg viewBox="0 0 145.60892896517555 180" height="180" width="145.60892896517555"><g><svg viewBox="0 0 192 237.34808191787135" height="180" width="145.60892896517555"><g transform="matrix(1,0,0,1,0,137.86621663289725)"><svg viewBox="0 0 192 99.4818652849741" height="99.4818652849741" width="192"><g id="SvgjsG3741"><svg viewBox="0 0 192 99.4818652849741" height="99.4818652849741" width="192" id="SvgjsSvg3740"><g><svg viewBox="0 0 192 99.4818652849741" height="99.4818652849741" width="192"><g transform="matrix(1,0,0,1,0,0)"><svg width="192" viewBox="4.6 -35 67.55000000000001 35" height="99.4818652849741" data-palette-color="url(#c5449fcb-31e4-4b59-b615-ae6d5798677d)"><g class="wordmark-text-0" data-fill-palette-color="primary" id="SvgjsG3739"><path d="M4.6-35L19.8-35Q23.45-35 26.08-33.95 28.7-32.9 30.13-30.95 31.55-29 31.55-26.25L31.55-26.25Q31.55-23.3 29.9-21.2 28.25-19.1 25.4-18.45L25.4-18.45Q28.9-17.85 30.9-15.5 32.9-13.15 32.9-9.6L32.9-9.6Q32.9-6.6 31.35-4.45 29.8-2.3 26.95-1.15 24.1 0 20.15 0L20.15 0 4.6 0 4.6-35ZM10.5-20.45L19.5-20.45Q22.3-20.45 23.9-21.73 25.5-23 25.5-25.3L25.5-25.3Q25.5-27.55 23.9-28.78 22.3-30 19.5-29.95L19.5-29.95 10.5-29.95 10.5-20.45ZM10.5-5.05L19.5-5.05Q22.95-5 24.9-6.38 26.85-7.75 26.85-10.3L26.85-10.3Q26.85-12.7 24.9-14.08 22.95-15.45 19.5-15.4L19.5-15.4 10.5-15.4 10.5-5.05ZM35.35 0L50.8-35 56.85-35 72.15 0 65.85 0 53.65-29.05 41.5 0 35.35 0ZM43.05-8.1L43.05-13.1 64-13.1 64-8.1 43.05-8.1Z" fill="black"></path></g></svg></g></svg></g></svg></g></svg></g><g transform="matrix(1,0,0,1,36.672,0)"><svg viewBox="0 0 118.656 123.34942492305268" height="123.34942492305268" width="118.656"><g><svg xmlns="http://www.w3.org/2000/svg" xmlns:xlink="http://www.w3.org/1999/xlink" version="1.1" x="0" y="0" viewBox="18.323 17.068999999999996 63.355 65.86100000000002" enable-background="new 0 0 100 100" xml:space="preserve" height="123.34942492305268" width="118.656" class="icon-icon-0" data-fill-palette-color="accent" id="SvgjsSvg3738"><g fill="black"><path d="M41.086 21.513c0.172-0.39 0.271-0.819 0.271-1.273 0-1.748-1.422-3.17-3.17-3.17s-3.17 1.422-3.17 3.17 1.422 3.17 3.17 3.17c0.375 0 0.73-0.077 1.064-0.197l24.309 26.045-13.675 27.35c-0.06-0.003-0.117-0.018-0.178-0.018-1.748 0-3.17 1.422-3.17 3.17s1.422 3.17 3.17 3.17c1.748 0 3.17-1.422 3.17-3.17 0-0.777-0.292-1.479-0.757-2.031l14.064-28.13c0.233-0.467 0.152-1.03-0.204-1.412L41.086 21.513z" fill="black"></path><path d="M58.506 49.599c0.24-0.481 0.146-1.062-0.234-1.442L31.527 21.412c0.146-0.363 0.23-0.757 0.23-1.172 0-1.748-1.422-3.17-3.17-3.17s-3.17 1.422-3.17 3.17 1.422 3.17 3.17 3.17c0.415 0 0.808-0.085 1.171-0.23l14.67 14.67c-0.029 0.024-0.065 0.034-0.092 0.061L31.114 51.134l-6.682-6.682c0.145-0.363 0.23-0.757 0.23-1.172 0-1.748-1.422-3.17-3.169-3.17-1.748 0-3.17 1.422-3.17 3.17 0 1.748 1.422 3.17 3.17 3.17 0.414 0 0.808-0.085 1.171-0.23l6.683 6.682-7.089 7.089c-0.088 0.088-0.142 0.193-0.198 0.297-0.287 0.229-0.482 0.566-0.482 0.962v6.018c-0.365 0.149-0.705 0.363-0.992 0.65-1.235 1.236-1.235 3.247 0 4.483 0.599 0.599 1.395 0.929 2.242 0.929s1.643-0.33 2.241-0.929c0.599-0.599 0.929-1.395 0.929-2.241s-0.33-1.643-0.929-2.242c-0.287-0.287-0.626-0.501-0.991-0.65v-5.562l22.028-22.028c0.027-0.027 0.037-0.063 0.061-0.092L48.9 42.32 27.704 63.516c-0.008 0.008-0.01 0.019-0.018 0.027-0.104 0.11-0.192 0.236-0.251 0.379-0.063 0.153-0.097 0.315-0.097 0.479v10.548c-0.365 0.149-0.705 0.363-0.992 0.65-1.236 1.235-1.236 3.247 0 4.483 0.599 0.599 1.395 0.928 2.242 0.928 0.847 0 1.643-0.329 2.241-0.928 1.236-1.236 1.236-3.247 0-4.483-0.287-0.287-0.626-0.501-0.991-0.65V64.917l20.83-20.83 5.199 5.199L42.206 76.608c-0.061-0.003-0.118-0.018-0.179-0.018-1.748 0-3.17 1.422-3.17 3.17s1.422 3.17 3.17 3.17c1.748 0 3.17-1.422 3.17-3.17 0-0.777-0.292-1.479-0.757-2.031L58.506 49.599z" fill="black"></path><path d="M78.508 74.67c-0.257 0-0.503 0.039-0.742 0.097l-3.768-5.023V49.04c0-0.313-0.118-0.614-0.329-0.845l-8.208-8.954 6.114-6.114c0.363 0.146 0.757 0.231 1.172 0.231 1.748 0 3.169-1.422 3.169-3.17 0-1.748-1.422-3.17-3.169-3.17-1.748 0-3.17 1.422-3.17 3.17 0 0.415 0.085 0.808 0.23 1.171l-6.038 6.037-3.066-3.345 10.872-10.872c0.363 0.145 0.757 0.23 1.172 0.23 1.748 0 3.169-1.422 3.169-3.17s-1.422-3.17-3.169-3.17c-1.748 0-3.17 1.422-3.17 3.17 0 0.415 0.085 0.809 0.23 1.172L59.013 32.207l-6.135-6.693V23.15c1.127-0.486 1.92-1.607 1.92-2.911 0-1.748-1.422-3.17-3.17-3.17-1.748 0-3.17 1.422-3.17 3.17 0 1.304 0.792 2.425 1.92 2.911V26c0 0.061 0.026 0.114 0.035 0.172 0.014 0.095 0.021 0.189 0.057 0.279 0.033 0.086 0.088 0.156 0.139 0.231 0.035 0.053 0.053 0.114 0.098 0.162l20.792 22.682V70.16c0 0.271 0.087 0.534 0.25 0.75l4.021 5.362c-0.267 0.464-0.432 0.995-0.432 1.568 0 1.748 1.422 3.17 3.17 3.17 1.748 0 3.17-1.422 3.17-3.17S80.255 74.67 78.508 74.67z" fill="black"></path></g></svg></g></svg></g><g></g></svg></g></svg></g></svg></g></svg></g><defs><mask></mask></defs></svg><rect width="320" height="360" fill="black" stroke="none" visibility="hidden"></rect></g></mask><mask><g id="SvgjsG3737"><svg viewBox="0 0 320 360" height="360" width="320"><g><svg></svg></g><g><svg viewBox="0 0 320 360" height="360" width="320"><g><path transform="translate(-32.1528,-12.1528) scale(3.84303,3.84303)" d="M88.492 50l1.711-2.963c2.946-5.102 1.198-11.626-3.904-14.572l-2.963-1.711v-3.422c0-5.891-4.776-10.667-10.667-10.667h-3.422l-1.711-2.963c-2.946-5.102-9.47-6.85-14.572-3.904l-2.964 1.71-2.963-1.711c-5.102-2.945-11.626-1.197-14.572 3.905l-1.711 2.963h-3.422c-5.891 0-10.667 4.776-10.667 10.667v3.422l-2.963 1.711c-5.102 2.946-6.85 9.47-3.904 14.572l1.71 2.963-1.711 2.963c-2.945 5.102-1.197 11.626 3.905 14.572l2.963 1.711v3.422c0 5.891 4.776 10.667 10.667 10.667h3.422l1.711 2.963c2.946 5.102 9.47 6.85 14.572 3.904l2.963-1.71 2.963 1.711c5.102 2.946 11.626 1.198 14.572-3.904l1.711-2.963h3.422c5.891 0 10.667-4.776 10.667-10.667v-3.422l2.963-1.711c5.102-2.946 6.85-9.47 3.904-14.572zM85.832 33.273c2.252 1.3 3.862 3.399 4.535 5.91 0.673 2.511 0.328 5.135-0.972 7.386l-1.441 2.497-4.618-7.999v-9.236zM73.72 73.72l-15.038 8.682h-17.364l-15.038-8.682-8.682-15.038v-17.364l8.682-15.038 15.038-8.682h17.364l15.038 8.682 8.682 15.038v17.364zM82.401 60.549v8.158l-7.065 4.079zM72.786 75.336l-4.079 7.065h-8.158zM57.065 83.335l-7.065 4.079-7.065-4.079zM39.451 82.401h-8.158l-4.079-7.065zM24.664 72.786l-7.065-4.079v-8.158zM16.665 57.065l-4.079-7.065 4.079-7.065zM17.599 39.451v-8.158l7.065-4.079zM27.214 24.664l4.079-7.065h8.158zM42.935 16.665l7.065-4.079 7.065 4.079zM60.549 17.599h8.158l4.079 7.065zM75.336 27.214l7.065 4.079v8.158zM83.335 42.935l4.079 7.065-4.079 7.065zM72.668 17.599c2.6 0 5.044 1.012 6.883 2.851 1.838 1.838 2.851 4.283 2.851 6.883v2.883l-7.999-4.618-4.618-7.999zM53.43 10.606c2.252-1.3 4.875-1.645 7.386-0.972 2.511 0.673 4.61 2.284 5.91 4.535l1.441 2.497h-9.236l-7.999-4.618zM33.273 14.168c1.3-2.252 3.399-3.862 5.91-4.535 2.511-0.673 5.135-0.328 7.386 0.972l2.497 1.441-7.999 4.618h-9.236zM17.599 27.332c0-2.6 1.012-5.044 2.851-6.883 1.838-1.838 4.283-2.851 6.883-2.851h2.883l-4.618 7.999-7.999 4.618zM10.606 46.57c-1.3-2.252-1.645-4.875-0.972-7.386 0.673-2.511 2.284-4.61 4.535-5.91l2.497-1.441v9.236l-4.618 7.999zM14.168 66.727c-2.252-1.3-3.862-3.399-4.535-5.91-0.673-2.511-0.328-5.135 0.972-7.386l1.441-2.497 4.618 7.999v9.236zM27.332 82.401c-2.6 0-5.044-1.012-6.883-2.851-1.838-1.838-2.851-4.283-2.851-6.883v-2.883l7.999 4.618 4.618 7.999zM46.57 89.394c-2.252 1.3-4.875 1.645-7.386 0.972-2.511-0.673-4.61-2.284-5.91-4.535l-1.441-2.497h9.236l7.999 4.618zM66.727 85.832c-1.3 2.252-3.399 3.862-5.91 4.535-2.511 0.673-5.135 0.328-7.386-0.972l-2.497-1.441 7.999-4.618h9.236zM82.401 72.668c0 2.6-1.012 5.044-2.851 6.883-1.838 1.838-4.283 2.851-6.883 2.851h-2.883l4.618-7.999 7.999-4.618zM90.367 60.816c-0.673 2.511-2.284 4.61-4.535 5.91l-2.497 1.441v-9.236l4.618-7.999 1.441 2.497c1.3 2.253 1.646 4.876 0.973 7.387z" fill="black" fill-rule="nonzero" stroke="none" stroke-width="1" stroke-linecap="butt" stroke-linejoin="miter" stroke-miterlimit="10" stroke-dasharray="" stroke-dashoffset="0" font-family="none" font-weight="none" font-size="none" text-anchor="none" style="mix-blend-mode: normal"></path></g><g transform="matrix(1,0,0,1,87.19553551741222,90)"><svg viewBox="0 0 145.60892896517555 180" height="180" width="145.60892896517555"><g><svg viewBox="0 0 145.60892896517555 180" height="180" width="145.60892896517555"><g><svg viewBox="0 0 192 237.34808191787135" height="180" width="145.60892896517555"><g transform="matrix(1,0,0,1,0,137.86621663289725)"><svg viewBox="0 0 192 99.4818652849741" height="99.4818652849741" width="192"><g id="SvgjsG3736"><svg viewBox="0 0 192 99.4818652849741" height="99.4818652849741" width="192" id="SvgjsSvg3735"><g><svg viewBox="0 0 192 99.4818652849741" height="99.4818652849741" width="192"><g transform="matrix(1,0,0,1,0,0)"><svg width="192" viewBox="4.6 -35 67.55000000000001 35" height="99.4818652849741" data-palette-color="url(#c5449fcb-31e4-4b59-b615-ae6d5798677d)"><g class="wordmark-text-0" data-fill-palette-color="primary" id="SvgjsG3734"></g></svg></g></svg></g></svg></g></svg></g><g transform="matrix(1,0,0,1,36.672,0)"><svg viewBox="0 0 118.656 123.34942492305268" height="123.34942492305268" width="118.656"><g><svg xmlns="http://www.w3.org/2000/svg" xmlns:xlink="http://www.w3.org/1999/xlink" version="1.1" x="0" y="0" viewBox="18.323 17.068999999999996 63.355 65.86100000000002" enable-background="new 0 0 100 100" xml:space="preserve" height="123.34942492305268" width="118.656" class="icon-icon-0" data-fill-palette-color="accent" id="SvgjsSvg3733"><g fill="black"><path d="M41.086 21.513c0.172-0.39 0.271-0.819 0.271-1.273 0-1.748-1.422-3.17-3.17-3.17s-3.17 1.422-3.17 3.17 1.422 3.17 3.17 3.17c0.375 0 0.73-0.077 1.064-0.197l24.309 26.045-13.675 27.35c-0.06-0.003-0.117-0.018-0.178-0.018-1.748 0-3.17 1.422-3.17 3.17s1.422 3.17 3.17 3.17c1.748 0 3.17-1.422 3.17-3.17 0-0.777-0.292-1.479-0.757-2.031l14.064-28.13c0.233-0.467 0.152-1.03-0.204-1.412L41.086 21.513z" fill="black"></path><path d="M58.506 49.599c0.24-0.481 0.146-1.062-0.234-1.442L31.527 21.412c0.146-0.363 0.23-0.757 0.23-1.172 0-1.748-1.422-3.17-3.17-3.17s-3.17 1.422-3.17 3.17 1.422 3.17 3.17 3.17c0.415 0 0.808-0.085 1.171-0.23l14.67 14.67c-0.029 0.024-0.065 0.034-0.092 0.061L31.114 51.134l-6.682-6.682c0.145-0.363 0.23-0.757 0.23-1.172 0-1.748-1.422-3.17-3.169-3.17-1.748 0-3.17 1.422-3.17 3.17 0 1.748 1.422 3.17 3.17 3.17 0.414 0 0.808-0.085 1.171-0.23l6.683 6.682-7.089 7.089c-0.088 0.088-0.142 0.193-0.198 0.297-0.287 0.229-0.482 0.566-0.482 0.962v6.018c-0.365 0.149-0.705 0.363-0.992 0.65-1.235 1.236-1.235 3.247 0 4.483 0.599 0.599 1.395 0.929 2.242 0.929s1.643-0.33 2.241-0.929c0.599-0.599 0.929-1.395 0.929-2.241s-0.33-1.643-0.929-2.242c-0.287-0.287-0.626-0.501-0.991-0.65v-5.562l22.028-22.028c0.027-0.027 0.037-0.063 0.061-0.092L48.9 42.32 27.704 63.516c-0.008 0.008-0.01 0.019-0.018 0.027-0.104 0.11-0.192 0.236-0.251 0.379-0.063 0.153-0.097 0.315-0.097 0.479v10.548c-0.365 0.149-0.705 0.363-0.992 0.65-1.236 1.235-1.236 3.247 0 4.483 0.599 0.599 1.395 0.928 2.242 0.928 0.847 0 1.643-0.329 2.241-0.928 1.236-1.236 1.236-3.247 0-4.483-0.287-0.287-0.626-0.501-0.991-0.65V64.917l20.83-20.83 5.199 5.199L42.206 76.608c-0.061-0.003-0.118-0.018-0.179-0.018-1.748 0-3.17 1.422-3.17 3.17s1.422 3.17 3.17 3.17c1.748 0 3.17-1.422 3.17-3.17 0-0.777-0.292-1.479-0.757-2.031L58.506 49.599z" fill="black"></path><path d="M78.508 74.67c-0.257 0-0.503 0.039-0.742 0.097l-3.768-5.023V49.04c0-0.313-0.118-0.614-0.329-0.845l-8.208-8.954 6.114-6.114c0.363 0.146 0.757 0.231 1.172 0.231 1.748 0 3.169-1.422 3.169-3.17 0-1.748-1.422-3.17-3.169-3.17-1.748 0-3.17 1.422-3.17 3.17 0 0.415 0.085 0.808 0.23 1.171l-6.038 6.037-3.066-3.345 10.872-10.872c0.363 0.145 0.757 0.23 1.172 0.23 1.748 0 3.169-1.422 3.169-3.17s-1.422-3.17-3.169-3.17c-1.748 0-3.17 1.422-3.17 3.17 0 0.415 0.085 0.809 0.23 1.172L59.013 32.207l-6.135-6.693V23.15c1.127-0.486 1.92-1.607 1.92-2.911 0-1.748-1.422-3.17-3.17-3.17-1.748 0-3.17 1.422-3.17 3.17 0 1.304 0.792 2.425 1.92 2.911V26c0 0.061 0.026 0.114 0.035 0.172 0.014 0.095 0.021 0.189 0.057 0.279 0.033 0.086 0.088 0.156 0.139 0.231 0.035 0.053 0.053 0.114 0.098 0.162l20.792 22.682V70.16c0 0.271 0.087 0.534 0.25 0.75l4.021 5.362c-0.267 0.464-0.432 0.995-0.432 1.568 0 1.748 1.422 3.17 3.17 3.17 1.748 0 3.17-1.422 3.17-3.17S80.255 74.67 78.508 74.67z" fill="black"></path></g></svg></g></svg></g><g></g></svg></g></svg></g></svg></g></svg></g><defs><mask></mask></defs><mask><g id="SvgjsG3732"><svg viewBox="0 0 320 360" height="360" width="320"><g><svg></svg></g><g><svg viewBox="0 0 320 360" height="360" width="320"><g><path transform="translate(-32.1528,-12.1528) scale(3.84303,3.84303)" d="M88.492 50l1.711-2.963c2.946-5.102 1.198-11.626-3.904-14.572l-2.963-1.711v-3.422c0-5.891-4.776-10.667-10.667-10.667h-3.422l-1.711-2.963c-2.946-5.102-9.47-6.85-14.572-3.904l-2.964 1.71-2.963-1.711c-5.102-2.945-11.626-1.197-14.572 3.905l-1.711 2.963h-3.422c-5.891 0-10.667 4.776-10.667 10.667v3.422l-2.963 1.711c-5.102 2.946-6.85 9.47-3.904 14.572l1.71 2.963-1.711 2.963c-2.945 5.102-1.197 11.626 3.905 14.572l2.963 1.711v3.422c0 5.891 4.776 10.667 10.667 10.667h3.422l1.711 2.963c2.946 5.102 9.47 6.85 14.572 3.904l2.963-1.71 2.963 1.711c5.102 2.946 11.626 1.198 14.572-3.904l1.711-2.963h3.422c5.891 0 10.667-4.776 10.667-10.667v-3.422l2.963-1.711c5.102-2.946 6.85-9.47 3.904-14.572zM85.832 33.273c2.252 1.3 3.862 3.399 4.535 5.91 0.673 2.511 0.328 5.135-0.972 7.386l-1.441 2.497-4.618-7.999v-9.236zM73.72 73.72l-15.038 8.682h-17.364l-15.038-8.682-8.682-15.038v-17.364l8.682-15.038 15.038-8.682h17.364l15.038 8.682 8.682 15.038v17.364zM82.401 60.549v8.158l-7.065 4.079zM72.786 75.336l-4.079 7.065h-8.158zM57.065 83.335l-7.065 4.079-7.065-4.079zM39.451 82.401h-8.158l-4.079-7.065zM24.664 72.786l-7.065-4.079v-8.158zM16.665 57.065l-4.079-7.065 4.079-7.065zM17.599 39.451v-8.158l7.065-4.079zM27.214 24.664l4.079-7.065h8.158zM42.935 16.665l7.065-4.079 7.065 4.079zM60.549 17.599h8.158l4.079 7.065zM75.336 27.214l7.065 4.079v8.158zM83.335 42.935l4.079 7.065-4.079 7.065zM72.668 17.599c2.6 0 5.044 1.012 6.883 2.851 1.838 1.838 2.851 4.283 2.851 6.883v2.883l-7.999-4.618-4.618-7.999zM53.43 10.606c2.252-1.3 4.875-1.645 7.386-0.972 2.511 0.673 4.61 2.284 5.91 4.535l1.441 2.497h-9.236l-7.999-4.618zM33.273 14.168c1.3-2.252 3.399-3.862 5.91-4.535 2.511-0.673 5.135-0.328 7.386 0.972l2.497 1.441-7.999 4.618h-9.236zM17.599 27.332c0-2.6 1.012-5.044 2.851-6.883 1.838-1.838 4.283-2.851 6.883-2.851h2.883l-4.618 7.999-7.999 4.618zM10.606 46.57c-1.3-2.252-1.645-4.875-0.972-7.386 0.673-2.511 2.284-4.61 4.535-5.91l2.497-1.441v9.236l-4.618 7.999zM14.168 66.727c-2.252-1.3-3.862-3.399-4.535-5.91-0.673-2.511-0.328-5.135 0.972-7.386l1.441-2.497 4.618 7.999v9.236zM27.332 82.401c-2.6 0-5.044-1.012-6.883-2.851-1.838-1.838-2.851-4.283-2.851-6.883v-2.883l7.999 4.618 4.618 7.999zM46.57 89.394c-2.252 1.3-4.875 1.645-7.386 0.972-2.511-0.673-4.61-2.284-5.91-4.535l-1.441-2.497h9.236l7.999 4.618zM66.727 85.832c-1.3 2.252-3.399 3.862-5.91 4.535-2.511 0.673-5.135 0.328-7.386-0.972l-2.497-1.441 7.999-4.618h9.236zM82.401 72.668c0 2.6-1.012 5.044-2.851 6.883-1.838 1.838-4.283 2.851-6.883 2.851h-2.883l4.618-7.999 7.999-4.618zM90.367 60.816c-0.673 2.511-2.284 4.61-4.535 5.91l-2.497 1.441v-9.236l4.618-7.999 1.441 2.497c1.3 2.253 1.646 4.876 0.973 7.387z" fill="black" fill-rule="nonzero" stroke="none" stroke-width="1" stroke-linecap="butt" stroke-linejoin="miter" stroke-miterlimit="10" stroke-dasharray="" stroke-dashoffset="0" font-family="none" font-weight="none" font-size="none" text-anchor="none" style="mix-blend-mode: normal"></path></g><g transform="matrix(1,0,0,1,87.19553551741222,90)"><svg viewBox="0 0 145.60892896517555 180" height="180" width="145.60892896517555"><g><svg viewBox="0 0 145.60892896517555 180" height="180" width="145.60892896517555"><g><svg viewBox="0 0 192 237.34808191787135" height="180" width="145.60892896517555"><g transform="matrix(1,0,0,1,0,137.86621663289725)"><svg viewBox="0 0 192 99.4818652849741" height="99.4818652849741" width="192"><g id="SvgjsG3731"><svg viewBox="0 0 192 99.4818652849741" height="99.4818652849741" width="192" id="SvgjsSvg3730"><g><svg viewBox="0 0 192 99.4818652849741" height="99.4818652849741" width="192"><g transform="matrix(1,0,0,1,0,0)"><svg width="192" viewBox="4.6 -35 67.55000000000001 35" height="99.4818652849741" data-palette-color="url(#c5449fcb-31e4-4b59-b615-ae6d5798677d)"><g class="wordmark-text-0" data-fill-palette-color="primary" id="SvgjsG3729"><path d="M4.6-35L19.8-35Q23.45-35 26.08-33.95 28.7-32.9 30.13-30.95 31.55-29 31.55-26.25L31.55-26.25Q31.55-23.3 29.9-21.2 28.25-19.1 25.4-18.45L25.4-18.45Q28.9-17.85 30.9-15.5 32.9-13.15 32.9-9.6L32.9-9.6Q32.9-6.6 31.35-4.45 29.8-2.3 26.95-1.15 24.1 0 20.15 0L20.15 0 4.6 0 4.6-35ZM10.5-20.45L19.5-20.45Q22.3-20.45 23.9-21.73 25.5-23 25.5-25.3L25.5-25.3Q25.5-27.55 23.9-28.78 22.3-30 19.5-29.95L19.5-29.95 10.5-29.95 10.5-20.45ZM10.5-5.05L19.5-5.05Q22.95-5 24.9-6.38 26.85-7.75 26.85-10.3L26.85-10.3Q26.85-12.7 24.9-14.08 22.95-15.45 19.5-15.4L19.5-15.4 10.5-15.4 10.5-5.05ZM35.35 0L50.8-35 56.85-35 72.15 0 65.85 0 53.65-29.05 41.5 0 35.35 0ZM43.05-8.1L43.05-13.1 64-13.1 64-8.1 43.05-8.1Z" fill="black"></path></g></svg></g></svg></g></svg></g></svg></g><g transform="matrix(1,0,0,1,36.672,0)"><svg viewBox="0 0 118.656 123.34942492305268" height="123.34942492305268" width="118.656"><g><svg xmlns="http://www.w3.org/2000/svg" xmlns:xlink="http://www.w3.org/1999/xlink" version="1.1" x="0" y="0" viewBox="18.323 17.068999999999996 63.355 65.86100000000002" enable-background="new 0 0 100 100" xml:space="preserve" height="123.34942492305268" width="118.656" class="icon-icon-0" data-fill-palette-color="accent" id="SvgjsSvg3728"><g fill="black"><path d="M41.086 21.513c0.172-0.39 0.271-0.819 0.271-1.273 0-1.748-1.422-3.17-3.17-3.17s-3.17 1.422-3.17 3.17 1.422 3.17 3.17 3.17c0.375 0 0.73-0.077 1.064-0.197l24.309 26.045-13.675 27.35c-0.06-0.003-0.117-0.018-0.178-0.018-1.748 0-3.17 1.422-3.17 3.17s1.422 3.17 3.17 3.17c1.748 0 3.17-1.422 3.17-3.17 0-0.777-0.292-1.479-0.757-2.031l14.064-28.13c0.233-0.467 0.152-1.03-0.204-1.412L41.086 21.513z" fill="black"></path><path d="M58.506 49.599c0.24-0.481 0.146-1.062-0.234-1.442L31.527 21.412c0.146-0.363 0.23-0.757 0.23-1.172 0-1.748-1.422-3.17-3.17-3.17s-3.17 1.422-3.17 3.17 1.422 3.17 3.17 3.17c0.415 0 0.808-0.085 1.171-0.23l14.67 14.67c-0.029 0.024-0.065 0.034-0.092 0.061L31.114 51.134l-6.682-6.682c0.145-0.363 0.23-0.757 0.23-1.172 0-1.748-1.422-3.17-3.169-3.17-1.748 0-3.17 1.422-3.17 3.17 0 1.748 1.422 3.17 3.17 3.17 0.414 0 0.808-0.085 1.171-0.23l6.683 6.682-7.089 7.089c-0.088 0.088-0.142 0.193-0.198 0.297-0.287 0.229-0.482 0.566-0.482 0.962v6.018c-0.365 0.149-0.705 0.363-0.992 0.65-1.235 1.236-1.235 3.247 0 4.483 0.599 0.599 1.395 0.929 2.242 0.929s1.643-0.33 2.241-0.929c0.599-0.599 0.929-1.395 0.929-2.241s-0.33-1.643-0.929-2.242c-0.287-0.287-0.626-0.501-0.991-0.65v-5.562l22.028-22.028c0.027-0.027 0.037-0.063 0.061-0.092L48.9 42.32 27.704 63.516c-0.008 0.008-0.01 0.019-0.018 0.027-0.104 0.11-0.192 0.236-0.251 0.379-0.063 0.153-0.097 0.315-0.097 0.479v10.548c-0.365 0.149-0.705 0.363-0.992 0.65-1.236 1.235-1.236 3.247 0 4.483 0.599 0.599 1.395 0.928 2.242 0.928 0.847 0 1.643-0.329 2.241-0.928 1.236-1.236 1.236-3.247 0-4.483-0.287-0.287-0.626-0.501-0.991-0.65V64.917l20.83-20.83 5.199 5.199L42.206 76.608c-0.061-0.003-0.118-0.018-0.179-0.018-1.748 0-3.17 1.422-3.17 3.17s1.422 3.17 3.17 3.17c1.748 0 3.17-1.422 3.17-3.17 0-0.777-0.292-1.479-0.757-2.031L58.506 49.599z" fill="black"></path><path d="M78.508 74.67c-0.257 0-0.503 0.039-0.742 0.097l-3.768-5.023V49.04c0-0.313-0.118-0.614-0.329-0.845l-8.208-8.954 6.114-6.114c0.363 0.146 0.757 0.231 1.172 0.231 1.748 0 3.169-1.422 3.169-3.17 0-1.748-1.422-3.17-3.169-3.17-1.748 0-3.17 1.422-3.17 3.17 0 0.415 0.085 0.808 0.23 1.171l-6.038 6.037-3.066-3.345 10.872-10.872c0.363 0.145 0.757 0.23 1.172 0.23 1.748 0 3.169-1.422 3.169-3.17s-1.422-3.17-3.169-3.17c-1.748 0-3.17 1.422-3.17 3.17 0 0.415 0.085 0.809 0.23 1.172L59.013 32.207l-6.135-6.693V23.15c1.127-0.486 1.92-1.607 1.92-2.911 0-1.748-1.422-3.17-3.17-3.17-1.748 0-3.17 1.422-3.17 3.17 0 1.304 0.792 2.425 1.92 2.911V26c0 0.061 0.026 0.114 0.035 0.172 0.014 0.095 0.021 0.189 0.057 0.279 0.033 0.086 0.088 0.156 0.139 0.231 0.035 0.053 0.053 0.114 0.098 0.162l20.792 22.682V70.16c0 0.271 0.087 0.534 0.25 0.75l4.021 5.362c-0.267 0.464-0.432 0.995-0.432 1.568 0 1.748 1.422 3.17 3.17 3.17 1.748 0 3.17-1.422 3.17-3.17S80.255 74.67 78.508 74.67z" fill="black"></path></g></svg></g></svg></g><g></g></svg></g></svg></g></svg></g></svg></g><defs><mask></mask></defs></svg><rect width="320" height="360" fill="black" stroke="none" visibility="hidden"></rect></g></mask></svg><rect width="320" height="360" fill="black" stroke="none" visibility="hidden"></rect></g></mask></svg><rect width="320" height="360" fill="black" stroke="none" visibility="hidden"></rect></g></mask><linearGradient x1="0" x2="1" y1="0.5" y2="0.5" id="eeee4e4c-8034-4c78-823e-6acab613e397"><stop stop-color="#ffa62e" offset="0"></stop><stop stop-color="#f71b3d" offset="1"></stop></linearGradient></svg><rect width="320" height="360" fill="none" stroke="none" visibility="hidden"></rect></g></svg></g></svg>