<svg xmlns="http://www.w3.org/2000/svg" version="1.1" xmlns:xlink="http://www.w3.org/1999/xlink" xmlns:svgjs="http://svgjs.dev/svgjs" width="2000" height="1247" viewBox="0 0 2000 1247"><g transform="matrix(1,0,0,1,-1.2121212121212466,0.504858299595071)"><svg viewBox="0 0 396 247" data-background-color="#000000" preserveAspectRatio="xMidYMid meet" height="1247" width="2000" xmlns="http://www.w3.org/2000/svg" xmlns:xlink="http://www.w3.org/1999/xlink"><g id="tight-bounds" transform="matrix(1,0,0,1,0.2400000000000091,-0.09999999999999432)"><svg viewBox="0 0 395.52 247.2" height="247.2" width="395.52"><rect width="395.52" height="247.2" fill="url(#87508317-aded-4418-a84e-e9b8b52112ba)" mask="url(#1d6ba34f-ad7c-45ab-82e7-08a45b4747f8)" data-fill-palette-color="tertiary"></rect><g><svg></svg></g><g><svg viewBox="0 0 395.52 247.2" height="247.2" width="395.52"><g transform="matrix(1,0,0,1,78.2416219178082,47.215199999999996)"><svg viewBox="0 0 239.03675616438358 152.7696" height="152.7696" width="239.03675616438358"><g><svg viewBox="0 0 239.03675616438358 152.7696" height="152.7696" width="239.03675616438358"><g><svg viewBox="0 0 239.03675616438358 152.7696" height="152.7696" width="239.03675616438358"><g><svg viewBox="0 0 239.03675616438358 152.7696" height="152.7696" width="239.03675616438358"><g id="textblocktransform"><svg viewBox="0 0 239.03675616438358 152.7696" height="152.7696" width="239.03675616438358" id="textblock"><g><svg viewBox="0 0 239.03675616438358 152.7696" height="152.7696" width="239.03675616438358"><g transform="matrix(1,0,0,1,0,0)"><svg width="239.03675616438358" viewBox="4.6 -32.85 51.4 32.85" height="152.7696" data-palette-color="url(#8294cdf2-a9fa-442d-b136-cebc1419c05e)"></svg></g></svg></g></svg></g></svg></g></svg></g></svg></g></svg></g><path d="M134.977 41.215L134.977 0 382.177 0 382.177 247.2 134.977 247.2 134.977 205.985 148.754 205.985 148.754 233.423 368.4 233.423 368.4 13.777 148.754 13.777 148.754 41.215Z" fill="url(#87508317-aded-4418-a84e-e9b8b52112ba)" stroke="transparent" data-fill-palette-color="tertiary"></path></svg></g><defs></defs><mask id="898dab6b-f4d6-4fa8-b60f-c8d769c9ae43"><g id="SvgjsG1640"><svg viewBox="0 0 395.52 247.2" height="247.2" width="395.52"><g><svg></svg></g><g><svg viewBox="0 0 395.52 247.2" height="247.2" width="395.52"><g transform="matrix(1,0,0,1,78.2416219178082,47.215199999999996)"><svg viewBox="0 0 239.03675616438358 152.7696" height="152.7696" width="239.03675616438358"><g><svg viewBox="0 0 239.03675616438358 152.7696" height="152.7696" width="239.03675616438358"><g><svg viewBox="0 0 239.03675616438358 152.7696" height="152.7696" width="239.03675616438358"><g><svg viewBox="0 0 239.03675616438358 152.7696" height="152.7696" width="239.03675616438358"><g id="SvgjsG1639"><svg viewBox="0 0 239.03675616438358 152.7696" height="152.7696" width="239.03675616438358" id="SvgjsSvg1638"><g><svg viewBox="0 0 239.03675616438358 152.7696" height="152.7696" width="239.03675616438358"><g transform="matrix(1,0,0,1,0,0)"><svg width="239.03675616438358" viewBox="4.6 -32.85 51.4 32.85" height="152.7696" data-palette-color="url(#8294cdf2-a9fa-442d-b136-cebc1419c05e)"><path d="M14.85 0L4.6 0 4.6-32.85 14.1-32.85Q17.45-32.85 19.98-32.02 22.5-31.2 23.9-29.43 25.3-27.65 25.3-24.8L25.3-24.8Q25.3-22.35 24.03-20.4 22.75-18.45 20.4-17.7L20.4-17.7 20.4-17.5Q23.45-16.95 25.33-14.98 27.2-13 27.2-9.6L27.2-9.6Q27.2-6.4 25.65-4.25 24.1-2.1 21.3-1.05 18.5 0 14.85 0L14.85 0ZM8.3-15.9L8.3-2.95 14.25-2.95Q18.65-2.95 21.1-4.6 23.55-6.25 23.55-9.7L23.55-9.7Q23.55-12.9 21.15-14.4 18.75-15.9 14.25-15.9L14.25-15.9 8.3-15.9ZM8.3-29.9L8.3-18.75 13.35-18.75Q17.75-18.75 19.7-20.28 21.65-21.8 21.65-24.35L21.65-24.35Q21.65-27.4 19.6-28.65 17.55-29.9 13.55-29.9L13.55-29.9 8.3-29.9ZM33.2 0L29.45 0 40.7-32.85 44.8-32.85 56 0 52.1 0 46.15-18.6Q45.25-21.4 44.42-24.13 43.6-26.85 42.75-29.75L42.75-29.75 42.55-29.75Q41.8-26.85 40.97-24.13 40.15-21.4 39.2-18.6L39.2-18.6 33.2 0ZM50.15-10.35L35.15-10.35 35.15-13.3 50.15-13.3 50.15-10.35Z" opacity="1" transform="matrix(1,0,0,1,0,0)" fill="white" class="wordmark-text-0" id="SvgjsPath1637"></path></svg></g></svg></g></svg></g></svg></g></svg></g></svg></g></svg></g><path d="M134.977 41.215L134.977 0 382.177 0 382.177 247.2 134.977 247.2 134.977 205.985 148.754 205.985 148.754 233.423 368.4 233.423 368.4 13.777 148.754 13.777 148.754 41.215Z" fill="black" stroke="transparent"></path></svg></g><defs><mask></mask></defs></svg><rect width="395.52" height="247.2" fill="black" stroke="none" visibility="hidden"></rect></g></mask><linearGradient x1="0" x2="1" y1="0.5" y2="0.5" id="8294cdf2-a9fa-442d-b136-cebc1419c05e"><stop stop-color="#fff72e" offset="0"></stop><stop stop-color="#deae29" offset="1"></stop></linearGradient><rect width="395.52" height="247.2" fill="url(#8294cdf2-a9fa-442d-b136-cebc1419c05e)" mask="url(#898dab6b-f4d6-4fa8-b60f-c8d769c9ae43)" data-fill-palette-color="primary"></rect><mask id="1d6ba34f-ad7c-45ab-82e7-08a45b4747f8"><g id="SvgjsG1663"><svg viewBox="0 0 395.52 247.2" height="247.2" width="395.52"><g><svg></svg></g><g><svg viewBox="0 0 395.52 247.2" height="247.2" width="395.52"><g transform="matrix(1,0,0,1,78.2416219178082,47.215199999999996)"><svg viewBox="0 0 239.03675616438358 152.7696" height="152.7696" width="239.03675616438358"><g><svg viewBox="0 0 239.03675616438358 152.7696" height="152.7696" width="239.03675616438358"><g><svg viewBox="0 0 239.03675616438358 152.7696" height="152.7696" width="239.03675616438358"><g><svg viewBox="0 0 239.03675616438358 152.7696" height="152.7696" width="239.03675616438358"><g id="SvgjsG1662"><svg viewBox="0 0 239.03675616438358 152.7696" height="152.7696" width="239.03675616438358" id="SvgjsSvg1661"><g><svg viewBox="0 0 239.03675616438358 152.7696" height="152.7696" width="239.03675616438358"><g transform="matrix(1,0,0,1,0,0)"><svg width="239.03675616438358" viewBox="4.6 -32.85 51.4 32.85" height="152.7696" data-palette-color="url(#8294cdf2-a9fa-442d-b136-cebc1419c05e)"></svg></g></svg></g></svg></g></svg></g></svg></g></svg></g></svg></g><path d="M134.977 41.215L134.977 0 382.177 0 382.177 247.2 134.977 247.2 134.977 205.985 148.754 205.985 148.754 233.423 368.4 233.423 368.4 13.777 148.754 13.777 148.754 41.215Z" fill="white" stroke="transparent"></path></svg></g><defs><mask></mask></defs><mask><g id="SvgjsG1660"><svg viewBox="0 0 395.52 247.2" height="247.2" width="395.52"><g><svg></svg></g><g><svg viewBox="0 0 395.52 247.2" height="247.2" width="395.52"><g transform="matrix(1,0,0,1,78.2416219178082,47.215199999999996)"><svg viewBox="0 0 239.03675616438358 152.7696" height="152.7696" width="239.03675616438358"><g><svg viewBox="0 0 239.03675616438358 152.7696" height="152.7696" width="239.03675616438358"><g><svg viewBox="0 0 239.03675616438358 152.7696" height="152.7696" width="239.03675616438358"><g><svg viewBox="0 0 239.03675616438358 152.7696" height="152.7696" width="239.03675616438358"><g id="SvgjsG1659"><svg viewBox="0 0 239.03675616438358 152.7696" height="152.7696" width="239.03675616438358" id="SvgjsSvg1658"><g><svg viewBox="0 0 239.03675616438358 152.7696" height="152.7696" width="239.03675616438358"><g transform="matrix(1,0,0,1,0,0)"><svg width="239.03675616438358" viewBox="4.6 -32.85 51.4 32.85" height="152.7696" data-palette-color="url(#8294cdf2-a9fa-442d-b136-cebc1419c05e)"><path d="M14.85 0L4.6 0 4.6-32.85 14.1-32.85Q17.45-32.85 19.98-32.02 22.5-31.2 23.9-29.43 25.3-27.65 25.3-24.8L25.3-24.8Q25.3-22.35 24.03-20.4 22.75-18.45 20.4-17.7L20.4-17.7 20.4-17.5Q23.45-16.95 25.33-14.98 27.2-13 27.2-9.6L27.2-9.6Q27.2-6.4 25.65-4.25 24.1-2.1 21.3-1.05 18.5 0 14.85 0L14.85 0ZM8.3-15.9L8.3-2.95 14.25-2.95Q18.65-2.95 21.1-4.6 23.55-6.25 23.55-9.7L23.55-9.7Q23.55-12.9 21.15-14.4 18.75-15.9 14.25-15.9L14.25-15.9 8.3-15.9ZM8.3-29.9L8.3-18.75 13.35-18.75Q17.75-18.75 19.7-20.28 21.65-21.8 21.65-24.35L21.65-24.35Q21.65-27.4 19.6-28.65 17.55-29.9 13.55-29.9L13.55-29.9 8.3-29.9ZM33.2 0L29.45 0 40.7-32.85 44.8-32.85 56 0 52.1 0 46.15-18.6Q45.25-21.4 44.42-24.13 43.6-26.85 42.75-29.75L42.75-29.75 42.55-29.75Q41.8-26.85 40.97-24.13 40.15-21.4 39.2-18.6L39.2-18.6 33.2 0ZM50.15-10.35L35.15-10.35 35.15-13.3 50.15-13.3 50.15-10.35Z" opacity="1" transform="matrix(1,0,0,1,0,0)" fill="black" class="wordmark-text-0" id="SvgjsPath1657"></path></svg></g></svg></g></svg></g></svg></g></svg></g></svg></g></svg></g><path d="M134.977 41.215L134.977 0 382.177 0 382.177 247.2 134.977 247.2 134.977 205.985 148.754 205.985 148.754 233.423 368.4 233.423 368.4 13.777 148.754 13.777 148.754 41.215Z" fill="black" stroke="transparent"></path></svg></g><defs><mask></mask></defs></svg><rect width="395.52" height="247.2" fill="black" stroke="none" visibility="hidden"></rect></g></mask></svg><rect width="395.52" height="247.2" fill="black" stroke="none" visibility="hidden"></rect></g></mask><linearGradient x1="0" x2="1" y1="0.5" y2="0.5" id="87508317-aded-4418-a84e-e9b8b52112ba"><stop stop-color="#fff72e" offset="0"></stop><stop stop-color="#deae29" offset="1"></stop></linearGradient></svg><rect width="395.52" height="247.2" fill="none" stroke="none" visibility="hidden"></rect></g></svg></g></svg>